<svg xmlns="http://www.w3.org/2000/svg" xmlns:xlink="http://www.w3.org/1999/xlink" width="239.106" height="218.85" viewBox="0 0 239.106 218.85">
  <defs>
    <linearGradient id="linear-gradient" x1="0.5" x2="0.5" y2="1" gradientUnits="objectBoundingBox">
      <stop offset="0" stop-color="#fff1f3"/>
      <stop offset="1" stop-color="#fff"/>
    </linearGradient>
  </defs>
  <g id="Group_295" data-name="Group 295" transform="translate(-2.289)">
    <g id="Group_297" data-name="Group 297">
      <path id="Path_325" data-name="Path 325" d="M778.833,358.5c-.51.35-1.009.706-1.508,1.072a131.635,131.635,0,0,0-7.226,43.249q0,2.554.111,5.094A127.815,127.815,0,0,0,777.4,445.16q.335.946.682,1.885c.166.449.335.9.516,1.347l.538.663c.012.009.023.026.036.035.072.089.144.177.209.265.308.377.621.751.929,1.127l-.244.028-.611.067,0,0c.206-.014.415-.03.622-.05.075,0,.158-.005.234-.015l.21-.016c8.83-.642,17.858-1.494,25.738-5.476,8.248-4.17,15.019-12.684,14.237-21.89a16.562,16.562,0,0,0-.709-3.55c-.152-.482-.328-.954-.515-1.425a17.447,17.447,0,0,0-30.151-4.113c1.982-9.594,12.122-14.9,21.319-18.271s19.57-6.919,23.953-15.681a18.852,18.852,0,0,0,.289-15.457c-.06-.15-.123-.305-.189-.457a25.459,25.459,0,0,0-12.9-13.365c-10.911-4.8-23.794-2.344-34.513,2.869a63.1,63.1,0,0,0-8.25,4.822Z" transform="translate(-594.801 -251.443)" fill="rgba(249,180,200,0.45)" opacity="0.5"/>
      <path id="Path_326" data-name="Path 326" d="M829.1,566.364a39.283,39.283,0,0,0-22.133,10.865,40.2,40.2,0,0,0-10.6,18.433c-.106.4-.2.8-.289,1.2-.23-.394-.455-.8-.677-1.2-.143-.256-.288-.515-.427-.774.166.449.335.9.516,1.347l.538.663c.012.009.023.026.036.035.072.089.144.177.209.265.308.377.621.751.929,1.127l-.244.028-.611.067,0,0c.206-.014.415-.03.622-.05.075,0,.158-.005.234-.015.02-.121.047-.24.073-.36a37.956,37.956,0,0,1,39.4-30.572c-.152-.482-.328-.954-.515-1.425A40.609,40.609,0,0,0,829.1,566.364Z" transform="translate(-611.686 -399.289)" fill="rgba(255,255,255,0.68)" opacity="0.54"/>
      <path id="Path_327" data-name="Path 327" d="M782.748,418.131a43.223,43.223,0,0,0-8.438,9.306,35.872,35.872,0,0,0-3.117,5.89c-.406.954-.77,1.935-1.093,2.923q0,2.554.111,5.094a37.031,37.031,0,0,1,.967-3.835c.2-.691.429-1.37.673-2.042,2.739-7.527,8.046-13.613,14.416-18.347a93.792,93.792,0,0,1,22.528-12,106.38,106.38,0,0,1,25.224-6.238.763.763,0,0,0,.664-.819.657.657,0,0,0-.189-.457.545.545,0,0,0-.474-.127c-1.065.129-2.127.262-3.188.423a107.641,107.641,0,0,0-25.69,7.174A86.6,86.6,0,0,0,782.748,418.131Z" transform="translate(-594.801 -284.868)" fill="rgba(255,255,255,0.68)" opacity="0.54"/>
    </g>
    <circle id="Ellipse_42" data-name="Ellipse 42" cx="2.967" cy="2.967" r="2.967" transform="translate(226.932 64.476)" fill="#f2f2f2"/>
    <path id="Path_328" data-name="Path 328" d="M569.545,327.278H496.383a16.563,16.563,0,0,1-16.544-16.544V125.544A16.563,16.563,0,0,1,496.383,109h73.162a16.563,16.563,0,0,1,16.544,16.544v185.19A16.563,16.563,0,0,1,569.545,327.278Z" transform="translate(-397.713 -109)" fill="#3f3d56"/>
    <path id="Path_329" data-name="Path 329" d="M578.232,125h-8.144a2.744,2.744,0,0,0-2.741,2.741,5.61,5.61,0,0,1-5.6,5.6h-39.83a5.61,5.61,0,0,1-5.6-5.6A2.744,2.744,0,0,0,513.567,125h-7.181a12.564,12.564,0,0,0-12.548,12.548V321.421a12.564,12.564,0,0,0,12.548,12.548h71.846a12.564,12.564,0,0,0,12.548-12.548V137.548A12.564,12.564,0,0,0,578.232,125Z" transform="translate(-407.218 -119.864)" fill="url(#linear-gradient)"/>
    <path id="Path_330" data-name="Path 330" d="M625.361,133.1h-22.47a.8.8,0,0,1,0-1.6h22.47a.8.8,0,0,1,0,1.6Z" transform="translate(-480.721 -124.278)" fill="#fff"/>
    <circle id="Ellipse_43" data-name="Ellipse 43" cx="0.642" cy="0.642" r="0.642" transform="translate(147.529 7.383)" fill="#fff"/>
    <path id="Path_331" data-name="Path 331" d="M809.784,270.637a1.446,1.446,0,0,1-1.445-1.444V240.944a1.444,1.444,0,1,1,2.889,0v28.248A1.446,1.446,0,0,1,809.784,270.637Z" transform="translate(-620.765 -197.61)" fill="#3f3d56"/>
    <path id="Path_332" data-name="Path 332" d="M476.783,251.809a1.446,1.446,0,0,1-1.444-1.445v-6.42a1.445,1.445,0,0,1,2.889,0v6.42A1.446,1.446,0,0,1,476.783,251.809Z" transform="translate(-394.657 -199.647)" fill="#3f3d56"/>
    <path id="Path_333" data-name="Path 333" d="M476.783,288.809a1.446,1.446,0,0,1-1.444-1.444v-6.42a1.445,1.445,0,0,1,2.889,0v6.42a1.446,1.446,0,0,1-1.445,1.445Z" transform="translate(-394.657 -224.77)" fill="#3f3d56"/>
    <path id="Path_335" data-name="Path 335" d="M62.648,637.79h3.935l1.872-15.179H62.647Z" transform="translate(-42.538 -422.755)" fill="#ffb6b6"/>
    <path id="Path_336" data-name="Path 336" d="M283.514,774.9h7.75a4.939,4.939,0,0,1,4.939,4.939v.161H283.514Z" transform="translate(-264.408 -561.145)" fill="#2f2e41"/>
    <path id="Path_337" data-name="Path 337" d="M175.648,637.79h3.935l1.872-15.179h-5.808Z" transform="translate(-119.265 -422.755)" fill="#ffb6b6"/>
    <path id="Path_338" data-name="Path 338" d="M396.514,774.9h7.75a4.939,4.939,0,0,1,4.939,4.939v.161H396.514Z" transform="translate(-341.135 -561.145)" fill="#2f2e41"/>
    <path id="Path_339" data-name="Path 339" d="M114.674,290l2.568,16.371-24.4.321,3.21-15.729Z" transform="translate(-63.043 -196.911)" fill="#ffb6b6"/>
    <path id="Path_340" data-name="Path 340" d="M319.45,437l6.1,20.865.963,85.739h-6.58L304.2,474.717l-14.445,67.088h-6.42l4.494-75.434s-2.247-18.618,5.457-24.075v-4.788Z" transform="translate(-264.288 -331.713)" fill="#2f2e41"/>
    <path id="Path_341" data-name="Path 341" d="M273.8,398.827a4.816,4.816,0,0,0,3.086-6.709l10.378-33.836-7.634-1.513-9.492,33.166a4.842,4.842,0,0,0,3.662,8.892Z" transform="translate(-253.642 -277.236)" fill="#ffb6b6"/>
    <circle id="Ellipse_44" data-name="Ellipse 44" cx="11.01" cy="11.01" r="11.01" transform="translate(25.763 51.541) rotate(-45)" fill="#ffb6b6"/>
    <path id="Path_342" data-name="Path 342" d="M316.358,351.012a2.014,2.014,0,0,1-1.616-1.828c-.242-3.315-1.44-9.077-3.559-17.126a13.342,13.342,0,0,1,11.013-16.6h0a13.336,13.336,0,0,1,15.157,11.665c1.049,9.235-.93,18.514-1.829,22.074a2.022,2.022,0,0,1-1.917,1.523l-16.817.325A2.006,2.006,0,0,1,316.358,351.012Z" transform="translate(-282.897 -249.096)" fill="#31c5fe"/>
    <path id="Path_343" data-name="Path 343" d="M409.115,328.736a4.722,4.722,0,0,0-.248.7l-21.05,7.153-4.067-3.553-6.165,5.438,6.589,6.99a3.586,3.586,0,0,0,4.241.734l22.524-11.505a4.706,4.706,0,1,0-1.824-5.956Z" transform="translate(-328.282 -256.327)" fill="#ffb6b6"/>
    <path id="Path_344" data-name="Path 344" d="M370.034,335.829l-7.673,6.7a2.017,2.017,0,0,1-3.024-.429l-5.489-8.547a5.6,5.6,0,0,1,8.461-7.346l7.707,6.565a2.017,2.017,0,0,1,.018,3.055Z" transform="translate(-311.232 -255.175)" fill="#1e9dce"/>
    <path id="Path_345" data-name="Path 345" d="M302.205,348.375l-9.483-3.725a2.017,2.017,0,0,1-1.012-2.882l5.059-8.808a5.6,5.6,0,0,1,10.417,4.128l-2.279,9.865a2.017,2.017,0,0,1-2.7,1.423Z" transform="translate(-269.791 -258.666)" fill="#1e9dce"/>
    <path id="Path_346" data-name="Path 346" d="M275.258,229.533c2.4,2.45,5.657,5.126,8.893,3.664a5.26,5.26,0,0,0,2.872-5.612c-.588-4.151-3.979-6.6-7.286-8.617-4.3-2.622-9.079-4.978-14.107-4.707s-10.177,4.067-10.277,9.1c-.08,4.049,2.964,8.034,1.659,11.868-1.313,3.858-6.183,5.061-10.258,4.989s-8.523-.717-11.911,1.549c-4.322,2.89-4.7,9.513-2.059,13.992s7.419,7.22,12.15,9.377c6.268,2.858,13.218,5.084,19.975,3.743s12.993-7.321,12.474-14.19c-.219-2.9-1.559-5.582-2.85-8.19s-2.584-5.323-2.7-8.23a7.847,7.847,0,0,1,2.725-6.459,1.989,1.989,0,0,0,.713-2.229Z" transform="translate(-228.834 -180.459)" fill="#2f2e41"/>
    <path id="Path_347" data-name="Path 347" d="M741.565,251.73c-3.473,2.083-9.659,4.692-15.982,2.01l-4.087-1.734,8.19-9.181a39.113,39.113,0,1,1,11.879,8.9Z" transform="translate(-560.475 -155.468)" fill="#31c5fe"/>
    <rect id="Rectangle_130" data-name="Rectangle 130" width="25.72" height="2.388" transform="translate(172.544 53.66)" fill="#fff"/>
    <rect id="Rectangle_131" data-name="Rectangle 131" width="44.827" height="2.388" transform="translate(172.544 61.923)" fill="#fff"/>
    <rect id="Rectangle_132" data-name="Rectangle 132" width="44.783" height="2.388" transform="translate(172.544 70.185)" fill="#fff"/>
    <path id="Path_350" data-name="Path 350" d="M518.366,506.652a24.948,24.948,0,1,1,35.24-1.719l5.224,5.856-2.607,1.106c-4.033,1.711-7.979.046-10.194-1.282A24.948,24.948,0,0,1,518.366,506.652Z" transform="translate(-418.313 -349.519)" fill="#fc2361"/>
    <rect id="Rectangle_133" data-name="Rectangle 133" width="16.405" height="1.523" transform="translate(113.573 133.92)" fill="#fff"/>
    <rect id="Rectangle_134" data-name="Rectangle 134" width="28.593" height="1.523" transform="translate(101.386 139.19)" fill="#fff"/>
    <rect id="Rectangle_135" data-name="Rectangle 135" width="28.565" height="1.523" transform="translate(101.414 144.46)" fill="#fff"/>
    <circle id="Ellipse_45" data-name="Ellipse 45" cx="3.531" cy="3.531" r="3.531" transform="translate(145.204 159.9)" fill="#31c5fe"/>
    <circle id="Ellipse_46" data-name="Ellipse 46" cx="4.173" cy="4.173" r="4.173" transform="translate(149.698 93.453)" fill="#fc2361"/>
  </g>
</svg>
